<?xml version="1.0" encoding="utf-8"?>
<!-- Generator: Adobe Illustrator 16.0.0, SVG Export Plug-In . SVG Version: 6.00 Build 0)  -->
<!DOCTYPE svg PUBLIC "-//W3C//DTD SVG 1.1//EN" "http://www.w3.org/Graphics/SVG/1.1/DTD/svg11.dtd">
<svg version="1.1" id="Layer_1" xmlns="http://www.w3.org/2000/svg" xmlns:xlink="http://www.w3.org/1999/xlink" x="0px" y="0px"
	 width="258.75px" height="47.334px" viewBox="0 0 258.75 47.334" enable-background="new 0 0 258.75 47.334" xml:space="preserve">
<path fill="#F2F2F2" d="M3.042,4.778c0-0.57,0.454-1.078,1.081-1.078h13.015c6.767,0,11.994,4.544,11.994,10.512
	c0,4.381-3.582,7.79-6.25,9.035c3.012,0.969,7.385,4.037,7.385,9.271c0,6.361-5.454,10.967-12.385,10.967H4.123
	c-0.627,0-1.081-0.508-1.081-1.079V4.778z M16.458,20.41c2.896,0,4.889-2.272,4.889-5.116c0-2.842-1.992-4.83-4.889-4.83h-6.084
	v9.946H16.458z M17.254,36.778c2.841,0,5.11-2.22,5.11-5.174c0-2.842-2.839-4.943-5.795-4.943h-6.196v10.117H17.254z"/>
<path fill="#F2F2F2" d="M55.829,4.778c0-0.57,0.516-1.078,1.08-1.078h5.288c0.57,0,1.079,0.508,1.079,1.078v37.627
	c0,0.571-0.509,1.079-1.079,1.079h-5.288c-0.563,0-1.08-0.508-1.08-1.079V4.778z"/>
<path fill="#F2F2F2" d="M171.816,3.982c0.056-0.455,0.395-0.854,1.02-0.854h0.913c0.455,0,0.792,0.228,0.964,0.572l12.508,26.825
	c0.111,0,0.111,0,0.166,0L199.893,3.7c0.172-0.345,0.454-0.572,0.965-0.572h0.913c0.62,0,0.963,0.399,1.019,0.854l6.711,38.195
	c0.166,0.799-0.288,1.307-1.025,1.307h-5.17c-0.516,0-0.97-0.452-1.08-0.852l-3.355-21.544c-0.056,0-0.172,0-0.172,0l-9.944,22.34
	c-0.116,0.339-0.453,0.627-0.968,0.627h-1.024c-0.51,0-0.791-0.288-0.964-0.627l-10.061-22.34c0,0-0.114,0-0.17,0l-3.296,21.544
	c-0.06,0.399-0.514,0.852-1.023,0.852h-5.116c-0.735,0-1.195-0.508-1.079-1.307L171.816,3.982z"/>
<path fill="#F2F2F2" d="M231.831,4.778c0-0.57,0.455-1.078,1.079-1.078h23.133c0.626,0,1.079,0.508,1.079,1.078v4.661
	c0,0.572-0.453,1.08-1.079,1.08h-16.821v9.318h14.036c0.57,0,1.079,0.517,1.079,1.085v4.716c0,0.628-0.509,1.08-1.079,1.08h-14.036
	v9.946h16.821c0.626,0,1.079,0.514,1.079,1.079v4.661c0,0.571-0.453,1.079-1.079,1.079H232.91c-0.624,0-1.079-0.508-1.079-1.079
	V4.778z"/>
</svg>
