<?xml version="1.0" encoding="utf-8"?>
<!-- Generator: Adobe Illustrator 16.0.0, SVG Export Plug-In . SVG Version: 6.00 Build 0)  -->
<!DOCTYPE svg PUBLIC "-//W3C//DTD SVG 1.1//EN" "http://www.w3.org/Graphics/SVG/1.1/DTD/svg11.dtd">
<svg version="1.1" id="Layer_1" xmlns="http://www.w3.org/2000/svg" xmlns:xlink="http://www.w3.org/1999/xlink" x="0px" y="0px"
	 width="103.834px" height="49.167px" viewBox="0 0 103.834 49.167" enable-background="new 0 0 103.834 49.167"
	 xml:space="preserve">
<line fill="none" stroke="#0E323A" stroke-width="3" stroke-linecap="round" stroke-miterlimit="10" x1="94.5" y1="20" x2="94.5" y2="35"/>
<line fill="none" stroke="#0E323A" stroke-width="3" stroke-linecap="round" stroke-miterlimit="10" x1="102" y1="27.5" x2="88" y2="27.5"/>
<g>
	<path fill="none" stroke="#B3B3B3" stroke-width="2" stroke-miterlimit="10" d="M5,11h6.808c0,0-0.223-4,2.544-4h4.761h1.989
		c0,0,1.943,0.654,4.353,2.714l9.587,8.338l-3.769,3.663L31.087,21.7l-4.783-4.597C21.877,13.121,19.775,22,19.775,22h-5.643
		l-2.324-5H5"/>
	<path fill="none" stroke="#B3B3B3" stroke-width="2" stroke-miterlimit="10" d="M21,22v22.548C21,46.488,18.867,48,16.925,48H16.65
		C14.71,48,12,46.488,12,44.548V22H21z"/>
	<rect x="2" y="10" fill="none" stroke="#B3B3B3" stroke-width="2" stroke-miterlimit="10" width="3" height="7"/>
</g>
<g>
	
		<rect x="31.414" y="18.286" transform="matrix(-0.6175 0.7865 -0.7865 -0.6175 106.9984 -5.6787)" fill="none" stroke="#B3B3B3" stroke-width="2" stroke-miterlimit="10" width="46.933" height="9.779"/>
	
		<line fill="none" stroke="#B3B3B3" stroke-width="2" stroke-linecap="round" stroke-miterlimit="10" x1="38.961" y1="35.538" x2="42.037" y2="37.954"/>
	
		<line fill="none" stroke="#B3B3B3" stroke-width="2" stroke-linecap="round" stroke-miterlimit="10" x1="41.376" y1="32.462" x2="44.452" y2="34.876"/>
	
		<line fill="none" stroke="#B3B3B3" stroke-width="2" stroke-linecap="round" stroke-miterlimit="10" x1="43.792" y1="29.385" x2="48.407" y2="33.008"/>
	
		<line fill="none" stroke="#B3B3B3" stroke-width="2" stroke-linecap="round" stroke-miterlimit="10" x1="46.208" y1="26.309" x2="49.284" y2="28.725"/>
	
		<line fill="none" stroke="#B3B3B3" stroke-width="2" stroke-linecap="round" stroke-miterlimit="10" x1="48.624" y1="23.233" x2="51.699" y2="25.646"/>
	
		<line fill="none" stroke="#B3B3B3" stroke-width="2" stroke-linecap="round" stroke-miterlimit="10" x1="51.039" y1="20.155" x2="55.652" y2="23.778"/>
	
		<line fill="none" stroke="#B3B3B3" stroke-width="2" stroke-linecap="round" stroke-miterlimit="10" x1="53.454" y1="17.079" x2="56.529" y2="19.495"/>
	
		<line fill="none" stroke="#B3B3B3" stroke-width="2" stroke-linecap="round" stroke-miterlimit="10" x1="55.869" y1="14.002" x2="58.945" y2="16.417"/>
	
		<line fill="none" stroke="#B3B3B3" stroke-width="2" stroke-linecap="round" stroke-miterlimit="10" x1="58.285" y1="10.926" x2="62.898" y2="14.548"/>
	
		<line fill="none" stroke="#B3B3B3" stroke-width="2" stroke-linecap="round" stroke-miterlimit="10" x1="60.699" y1="7.85" x2="63.775" y2="10.265"/>
	
		<line fill="none" stroke="#B3B3B3" stroke-width="2" stroke-linecap="round" stroke-miterlimit="10" x1="63.115" y1="4.772" x2="66.191" y2="7.188"/>
</g>
</svg>
