<?xml version="1.0" encoding="utf-8"?>
<!-- Generator: Adobe Illustrator 16.0.0, SVG Export Plug-In . SVG Version: 6.00 Build 0)  -->
<!DOCTYPE svg PUBLIC "-//W3C//DTD SVG 1.1//EN" "http://www.w3.org/Graphics/SVG/1.1/DTD/svg11.dtd">
<svg version="1.1" id="Layer_1" xmlns="http://www.w3.org/2000/svg" xmlns:xlink="http://www.w3.org/1999/xlink" x="0px" y="0px"
	 width="32.25px" height="35.613px" viewBox="0 0 32.25 35.613" enable-background="new 0 0 32.25 35.613" xml:space="preserve">
<g opacity="0.6">
	<path fill="#F2F2F2" d="M21.978,18.526c0,3.039-2.461,5.5-5.498,5.5c-3.036,0-5.499-2.461-5.499-5.5
		c0-3.035,2.463-5.497,5.499-5.497C19.517,13.029,21.978,15.491,21.978,18.526"/>
	<path fill="#F2F2F2" d="M30.966,28.707V16.874h-5.972c0.105,0.542,0.16,1.103,0.16,1.673c0,4.828-3.911,8.74-8.738,8.74
		s-8.738-3.913-8.738-8.74c0-0.566,0.053-1.12,0.157-1.656H1.783v11.181v0.635c0,2.522,2.043,4.562,4.562,4.562h19.509h0.55
		C28.923,33.27,30.966,31.229,30.966,28.707"/>
	<path fill="#F2F2F2" d="M1.783,8.519c0-2.52,2.043-4.563,4.562-4.563h0.551h19.509c2.519,0,4.562,2.043,4.562,4.563v0.675v4.305
		h-7.414c-1.584-2.232-4.189-3.688-7.136-3.688c-2.902,0-5.479,1.417-7.067,3.596L9.28,13.499H1.783V8.864V8.519z M26.317,6.338
		L26.317,6.338c-0.93,0-1.686,0.756-1.686,1.685v0.814c0,0.932,0.756,1.687,1.686,1.687h0.686c0.932,0,1.685-0.755,1.685-1.687
		V8.023c0-0.928-0.753-1.685-1.685-1.685H26.317z"/>
</g>
</svg>
