<?xml version="1.0" encoding="utf-8"?>
<!-- Generator: Adobe Illustrator 16.0.0, SVG Export Plug-In . SVG Version: 6.00 Build 0)  -->
<!DOCTYPE svg PUBLIC "-//W3C//DTD SVG 1.1//EN" "http://www.w3.org/Graphics/SVG/1.1/DTD/svg11.dtd">
<svg version="1.1" id="Layer_1" xmlns="http://www.w3.org/2000/svg" xmlns:xlink="http://www.w3.org/1999/xlink" x="0px" y="0px"
	 width="33.625px" height="47.5px" viewBox="0 0 33.625 47.5" enable-background="new 0 0 33.625 47.5" xml:space="preserve">
<g>
	
		<line fill="none" stroke="#0E323A" stroke-width="3" stroke-linecap="round" stroke-miterlimit="10" x1="15.057" y1="44.916" x2="15.057" y2="10.003"/>
	<path fill="none" stroke="#0E323A" stroke-width="3" stroke-linecap="round" stroke-miterlimit="10" d="M15.057,10.629
		c1.587-5.905,8.984-6.379,8.984-6.379c3.798,0,7.083,3.079,7.083,6.877c0,3.799-3.389,6.877-7.188,6.877
		c0,0-4.912,0.996-8.88-3.588V10.629z"/>
	<path fill="none" stroke="#0E323A" stroke-width="3" stroke-linecap="round" stroke-miterlimit="10" d="M15.057,18.196
		c-2.38-5.641-6.698-5.791-6.698-5.791c-3.198,0-5.571,2.592-5.571,5.791c0,3.197,2.264,5.789,5.461,5.789c0,0,3.633,0,6.807-2.542
		V18.196z"/>
	<path fill="none" stroke="#0E323A" stroke-width="3" stroke-linecap="round" stroke-miterlimit="10" d="M16.96,24.964
		c1.881-2.416,5.763-2.898,5.763-2.898c2.703-0.336,5.165,1.583,5.502,4.284c0.336,2.703-1.583,5.167-4.285,5.503
		c0,0-4.15,0.388-6.638-4.144L16.96,24.964z"/>
</g>
</svg>
