<?xml version="1.0" encoding="utf-8"?>
<!-- Generator: Adobe Illustrator 16.0.0, SVG Export Plug-In . SVG Version: 6.00 Build 0)  -->
<!DOCTYPE svg PUBLIC "-//W3C//DTD SVG 1.1//EN" "http://www.w3.org/Graphics/SVG/1.1/DTD/svg11.dtd">
<svg version="1.1" id="Layer_1" xmlns="http://www.w3.org/2000/svg" xmlns:xlink="http://www.w3.org/1999/xlink" x="0px" y="0px"
	 width="110px" height="50px" viewBox="0 0 110 50" enable-background="new 0 0 110 50" xml:space="preserve">
<line fill="none" stroke="#0E323A" stroke-width="3" stroke-linecap="round" stroke-miterlimit="10" x1="94.5" y1="20" x2="94.5" y2="35"/>
<line fill="none" stroke="#0E323A" stroke-width="3" stroke-linecap="round" stroke-miterlimit="10" x1="102" y1="27.5" x2="88" y2="27.5"/>
<line fill="none" stroke="#B3B3B3" stroke-width="2" stroke-miterlimit="10" x1="14.479" y1="5.622" x2="23.287" y2="32"/>
<circle fill="none" stroke="#B3B3B3" stroke-width="2" stroke-miterlimit="10" cx="19.176" cy="42.989" r="4.752"/>
<circle fill="none" stroke="#B3B3B3" stroke-width="2" stroke-miterlimit="10" cx="46.241" cy="42.806" r="4.352"/>
<polyline fill="none" stroke="#B3B3B3" stroke-width="2" stroke-miterlimit="10" points="16,39 16,35.769 16,32 29.442,32 
	46.131,37.153 46.057,39.177 "/>
<path fill="none" stroke="#B3B3B3" stroke-width="2" stroke-miterlimit="10" d="M15,5.188C15,6.189,14.188,7,13.188,7H4.812
	C3.812,7,3,6.189,3,5.188V4.812C3,3.811,3.812,3,4.812,3h8.375C14.188,3,15,3.811,15,4.812V5.188z"/>
<line fill="none" stroke="#B3B3B3" stroke-width="2" stroke-miterlimit="10" x1="24" y1="45" x2="42" y2="45"/>
<g>
	
		<line fill="none" stroke="#0E323A" stroke-width="2" stroke-linecap="round" stroke-miterlimit="10" x1="161" y1="69" x2="161" y2="81"/>
	
		<line fill="none" stroke="#0E323A" stroke-width="2" stroke-linecap="round" stroke-miterlimit="10" x1="167" y1="75" x2="155" y2="75"/>
</g>
</svg>
