<?xml version="1.0" encoding="utf-8"?>
<!-- Generator: Adobe Illustrator 16.0.0, SVG Export Plug-In . SVG Version: 6.00 Build 0)  -->
<!DOCTYPE svg PUBLIC "-//W3C//DTD SVG 1.1//EN" "http://www.w3.org/Graphics/SVG/1.1/DTD/svg11.dtd">
<svg version="1.1" id="Layer_1" xmlns="http://www.w3.org/2000/svg" xmlns:xlink="http://www.w3.org/1999/xlink" x="0px" y="0px"
	 width="41px" height="57.75px" viewBox="0 0 41 57.75" enable-background="new 0 0 41 57.75" xml:space="preserve">
<g>
	
		<line fill="#052732" stroke="#F2F2F2" stroke-width="3" stroke-linecap="round" stroke-miterlimit="10" x1="18.25" y1="55.5" x2="18.25" y2="11.5"/>
	<path fill="none" stroke="#F2F2F2" stroke-width="3" stroke-linecap="round" stroke-miterlimit="10" d="M18.25,12.29
		c2-7.442,11.322-8.04,11.322-8.04c4.787,0,8.927,3.88,8.927,8.667c0,4.787-4.271,8.667-9.058,8.667c0,0-6.191,1.256-11.191-4.522
		V12.29z"/>
	<path fill="none" stroke="#F2F2F2" stroke-width="3" stroke-linecap="round" stroke-miterlimit="10" d="M18.25,21.825
		c-3-7.108-8.441-7.297-8.441-7.297c-4.03,0-7.021,3.266-7.021,7.297c0,4.029,2.853,7.296,6.883,7.296c0,0,4.579,0,8.579-3.203
		V21.825z"/>
	<path fill="none" stroke="#F2F2F2" stroke-width="3" stroke-linecap="round" stroke-miterlimit="10" d="M20.649,30.355
		c2.37-3.044,7.263-3.652,7.263-3.652c3.406-0.424,6.51,1.995,6.934,5.399c0.423,3.406-1.995,6.511-5.401,6.935
		c0,0-5.229,0.488-8.365-5.223L20.649,30.355z"/>
</g>
</svg>
